# xmcd
#
# Track frame offsets:
#	150
#	15813
#	34773
#	52848
#	67071
#	86164
#	100637
#	118978
#	134930
#	152829
#	169357
#	186171
#	207932
#	222098
#	241539
#
# Disc length: 3442 seconds
#
# Revision: 1
# Processed by: cddbd v1.5.2PL0 Copyright (c) Steve Scherf et al.
# Submitted via: audiograbber 1.83.01
#
DISCID=cf0d700f
DTITLE=Various Artist - NRJ Hits 13 [CD1)
DYEAR=2009
DGENRE=Pop
TTITLE0=Lady Gaga - Paparazzi
TTITLE1=Pussycat Dolls - Hush Hush
TTITLE2=Sean Kingston - Fire Burning
TTITLE3=David Guetta - When Love Takes Over
TTITLE4=The Fray - Heartless
TTITLE5=Three Days Grace - Break
TTITLE6=Robbie Williams - Bodies
TTITLE7=Jordin Sparks - S.O.S. (Let The Music Play)
TTITLE8=Pitbull - Hotel Room Service
TTITLE9=Lily Allen - Fuck You
TTITLE10=Haloo Helsinki! - Ei Eerika P‰‰se Taivaaseen
TTITLE11=The Black Eyed Peas - I Gotta Feeling
TTITLE12=Anna Abreu - Music Everywhere
TTITLE13=John ME - Love Is My Drug
TTITLE14=Aamupojat - T‰n‰ Iltana
EXTD=TR.
EXTT0=
EXTT1=
EXTT2=
EXTT3=
EXTT4=
EXTT5=
EXTT6=
EXTT7=
EXTT8=
EXTT9=
EXTT10=
EXTT11=
EXTT12=
EXTT13=
EXTT14=
PLAYORDER=
